<?xml version="1.0" encoding="UTF-8"?>
<svg id="Layer_2" data-name="Layer 2" xmlns="http://www.w3.org/2000/svg" viewBox="0 0 562.57 562.57">
  <defs>
    <style>
      .cls-1 {
        fill: #fff;
        stroke-width: 0px;
      }
    </style>
  </defs>
  <g id="Layer_1-2" data-name="Layer 1">
    <path class="cls-1" d="M544.6,263.31h-129.18c-18.39,0-24.91-24.34-8.98-33.53l111.88-64.59c8.59-4.96,11.54-15.95,6.58-24.55h0c-4.96-8.6-15.95-11.54-24.55-6.58l-111.88,64.59c-15.92,9.19-33.74-8.63-24.55-24.55l64.59-111.88c4.96-8.6,2.02-19.59-6.58-24.55-8.59-4.96-19.59-2.02-24.55,6.58l-64.59,111.88c-9.19,15.92-33.53,9.4-33.53-8.99V17.97c0-9.92-8.05-17.97-17.97-17.97s-17.97,8.05-17.97,17.97v129.18c0,18.39-24.34,24.91-33.53,8.99l-64.59-111.88c-4.96-8.6-15.95-11.54-24.55-6.58-8.59,4.96-11.54,15.95-6.58,24.55l64.59,111.88c9.19,15.92-8.63,33.74-24.55,24.55l-111.88-64.59c-8.59-4.96-19.59-2.02-24.55,6.58h0c-4.96,8.6-2.02,19.59,6.58,24.55l111.88,64.59c15.92,9.19,9.4,33.53-8.99,33.53H17.97c-9.92,0-17.97,8.05-17.97,17.97h0c0,9.93,8.05,17.97,17.97,17.97h129.18c18.38,0,24.91,24.34,8.98,33.53l-111.88,64.59c-8.59,4.96-11.54,15.95-6.58,24.55h0c4.96,8.6,15.95,11.54,24.55,6.58l111.88-64.59c15.92-9.19,33.74,8.63,24.55,24.55l-64.59,111.88c-4.96,8.6-2.02,19.58,6.58,24.55h0c8.59,4.96,19.59,2.02,24.55-6.58l64.59-111.88c9.19-15.92,33.53-9.4,33.53,8.98v129.19c0,9.92,8.05,17.97,17.97,17.97s17.97-8.05,17.97-17.97v-129.19c0-18.38,24.34-24.91,33.53-8.98l64.59,111.88c4.96,8.6,15.95,11.54,24.55,6.58h0c8.59-4.96,11.54-15.95,6.58-24.55l-64.59-111.88c-9.19-15.92,8.63-33.74,24.55-24.55l111.88,64.59c8.59,4.96,19.59,2.02,24.55-6.58h0c4.96-8.6,2.02-19.59-6.58-24.55l-111.88-64.59c-15.92-9.19-9.4-33.53,8.98-33.53h129.18c9.92,0,17.97-8.05,17.97-17.97h0c0-9.93-8.05-17.97-17.97-17.97Z"/>
  </g>
</svg>