<?xml version="1.0" encoding="UTF-8"?><svg xmlns="http://www.w3.org/2000/svg" viewBox="0 0 24 24"><g id="a"/><g id="b"/><g id="c"/><g id="d"/><g id="e"/><g id="f"/><g id="g"/><g id="h"/><g id="i"/><g id="j"/><g id="k"/><g id="l"/><g id="m"/><g id="n"/><g id="o"><g><path d="M15.59,11.29c.59,.29,1.24,.45,1.9,.46h0c1.63,0,3.14-.95,3.84-2.43,.12-.25,.09-.55-.08-.77-.17-.22-.45-.33-.72-.29-.93,.16-1.85-.19-2.39-.9-.63-.83-.64-2.03-.03-2.93,.16-.23,.17-.53,.04-.77-.13-.25-.39-.4-.66-.4-2.34,0-4.25,1.91-4.25,4.25,0,.82,.24,1.62,.69,2.31,.29,.44,.81,1.05,1.66,1.48Z"/><path d="M18.63,13.26s-.03-.09-.04-.13c-.36,.07-.72,.12-1.09,.12h0c-.9,0-1.79-.22-2.58-.62-1.14-.57-1.85-1.4-2.24-2-.46-.71-.76-1.51-.87-2.33-2.32,.26-4.32,1.81-5.14,4.01-.22-.04-.44-.06-.67-.06-2.07,0-3.75,1.68-3.75,3.75s1.68,3.75,3.75,3.75h12.5c1.79,0,3.25-1.46,3.25-3.25s-1.39-3.17-3.12-3.24Z"/></g></g><g id="p"/><g id="q"/><g id="r"/><g id="s"/><g id="t"/><g id="u"/></svg>